<svg width="24" height="24" viewBox="0 0 24 24" fill="none" xmlns="http://www.w3.org/2000/svg">
<path d="M23.6137 0.378714C23.3451 0.110517 22.9691 -0.0233903 22.5663 0.00335471L15.8522 0.459136C15.53 0.485881 15.2345 0.61998 14.9927 0.834495L0.382741 15.4471C-0.12758 15.9566 -0.12758 16.8144 0.382741 17.3239L6.66716 23.5979C6.9358 23.8661 7.258 24 7.60723 24C7.95646 24 8.27864 23.8659 8.5473 23.5979L23.1572 9.01213C23.3721 8.79761 23.5332 8.47594 23.5332 8.15405L23.9898 1.39741C24.0433 1.02223 23.8822 0.646859 23.6136 0.378882L23.6137 0.378714ZM22.7274 8.10059C22.7274 8.23469 22.6737 8.34186 22.5931 8.42228L7.98318 23.0349C7.7951 23.2226 7.47286 23.2226 7.25801 23.0349L0.973593 16.734C0.785507 16.5462 0.785507 16.2245 0.973593 16.01L15.5835 1.42428C15.6641 1.34386 15.7716 1.29018 15.9057 1.29018L22.6467 0.807659H22.6735C22.8078 0.807659 22.9422 0.861336 23.0227 0.941758C23.13 1.04892 23.1838 1.18302 23.1838 1.34386L22.7274 8.10059Z" fill="#515151"/>
<path d="M20.0694 2.81866C19.4517 2.81866 18.9414 3.32814 18.9414 3.94477C18.9414 4.5614 19.4517 5.07088 20.0694 5.07088C20.687 5.07088 21.1974 4.5614 21.1974 3.94477C21.1974 3.32795 20.7138 2.81866 20.0694 2.81866ZM20.0694 4.26642C19.9083 4.26642 19.7472 4.13232 19.7472 3.94473C19.7472 3.78389 19.8815 3.62305 20.0694 3.62305C20.2305 3.62305 20.3916 3.75714 20.3916 3.94473C20.3916 4.13232 20.2573 4.26642 20.0694 4.26642Z" fill="#515151"/>
</svg>
