<svg width="25" height="24" viewBox="0 0 25 24" fill="none" xmlns="http://www.w3.org/2000/svg">
<path d="M14.8167 21.5129L13.595 19.1319C13.3705 18.6725 12.9238 18.387 12.4292 18.387C12.2237 18.387 12.0184 18.4393 11.8352 18.5378L10.9357 19.022C10.6259 19.1887 10.3963 19.473 10.2892 19.822C10.182 20.1715 10.2106 20.5428 10.3732 20.8746L11.5949 23.2558C11.8194 23.715 12.2661 24 12.7607 24C12.9662 24 13.1717 23.9478 13.3549 23.8492L14.2539 23.3655C14.5638 23.1988 14.7933 22.9147 14.9005 22.5655C15.0079 22.216 14.9793 21.8447 14.8167 21.5129ZM11.0962 20.5666L11.0601 20.4958C10.9957 20.3643 10.9845 20.2137 11.0278 20.0713C11.0715 19.929 11.1646 19.8134 11.29 19.7457L12.1893 19.2618C12.2642 19.2213 12.345 19.2009 12.429 19.2009C12.631 19.2009 12.8131 19.3167 12.908 19.5102L12.9264 19.5461C12.5704 20.1728 11.0962 20.5666 11.0962 20.5666ZM11.8201 21.9616C11.8177 21.9623 11.816 21.9641 11.8136 21.965L11.4691 21.2935C11.9312 21.1618 12.8838 20.8389 13.3272 20.327L13.6395 20.9356C13.3138 21.6105 11.8201 21.9616 11.8201 21.9616ZM14.162 22.3159C14.1182 22.4583 14.0253 22.5736 13.8997 22.6413L13.0004 23.1255C12.7456 23.2633 12.4162 23.1511 12.2817 22.8773L12.191 22.7004C12.6815 22.5568 13.623 22.2255 14.0354 21.7078L14.1298 21.8917C14.1942 22.0232 14.2054 22.1738 14.1619 22.3159L14.162 22.3159Z" fill="#515151"/>
<path d="M10.158 15.8813C10.1069 15.6819 10.0575 15.4789 10.0077 15.2741C9.81498 14.4818 9.61339 13.6645 9.29034 12.8974C9.28103 12.8751 9.27388 12.852 9.26435 12.8299C9.26284 12.8265 9.26046 12.8238 9.25873 12.8204C9.25115 12.8031 9.24747 12.7834 9.23707 12.7675C8.94302 12.1035 8.58745 11.5698 8.15158 11.1379C7.31964 10.3135 6.20814 9.85962 5.02176 9.85962C3.68792 9.85962 2.39888 10.4287 1.48528 11.4208C0.957151 11.994 0.549622 12.7389 0.306214 13.575C-0.0194563 14.6955 -0.0857159 15.9501 0.109165 17.3039C0.2196 18.0703 0.406903 19.0654 0.87614 19.9663C1.0498 20.2999 1.25075 20.6446 1.54245 20.9075C1.57017 20.9323 1.64011 20.982 1.72715 21.0397C1.77219 21.0697 1.85729 21.1262 1.92139 21.173V23.2325C1.92139 23.4573 2.09505 23.6394 2.30942 23.6394H6.68261C6.89698 23.6394 7.07064 23.4573 7.07064 23.2325C7.07064 23.0313 7.07151 22.8853 7.07237 22.7567C7.07324 22.615 7.0741 22.4942 7.07324 22.3448C7.69381 22.3387 8.09376 22.3021 8.26356 22.2358C8.89128 21.9908 9.21197 20.9859 9.19511 20.1645C9.19122 19.9692 9.05523 19.8043 8.87161 19.7719C8.38332 19.6863 8.03884 19.5073 7.87575 19.2546C7.83179 19.1864 7.80386 19.1176 7.7861 19.0536H7.80018L8.96234 19.0543H8.96256C9.16177 19.0543 9.3285 18.8964 9.34886 18.6889L9.44608 17.6911H10.1128C10.2035 17.6911 10.2912 17.6579 10.3609 17.597C10.6117 17.3783 10.5415 17.114 10.2035 16.0294C10.1806 15.9554 10.1635 15.9011 10.158 15.8814L10.158 15.8813ZM8.70956 17.2427L8.61234 18.2403L7.80013 18.2399C7.32959 18.2399 7.32959 18.2399 7.26831 18.2614C7.14272 18.3053 7.04723 18.4134 7.01496 18.5478C7.00046 18.608 6.88353 19.1503 7.21981 19.6899C7.45951 20.0743 7.85729 20.3457 8.40514 20.4988C8.34862 21.0072 8.14486 21.4142 7.99892 21.4714C7.90277 21.5013 7.45606 21.532 6.87528 21.532C6.79257 21.532 6.7276 21.5313 6.69101 21.5302C6.58512 21.5245 6.4827 21.5697 6.40735 21.648C6.33199 21.7262 6.29063 21.8333 6.29237 21.9444C6.2993 22.3261 6.298 22.5069 6.29627 22.7512C6.29605 22.7753 6.29605 22.8001 6.29583 22.8257L2.69721 22.8255V21.0624C2.70479 21.0429 2.71475 21.0165 2.7232 20.9952C2.73706 20.9593 2.7507 20.9241 2.76629 20.8834C2.78231 20.8407 2.79985 20.7931 2.81739 20.7458C2.83082 20.7095 2.84381 20.6757 2.85767 20.6368C2.87651 20.5846 2.89578 20.5278 2.91527 20.4713C2.92869 20.432 2.94234 20.3947 2.95598 20.3539C2.97568 20.2948 2.99495 20.2319 3.01444 20.1697C3.02787 20.1272 3.04129 20.0866 3.05407 20.043C3.07356 19.9776 3.09131 19.9097 3.10972 19.8422C3.12141 19.7993 3.13397 19.7575 3.1448 19.7139C3.16299 19.6424 3.17814 19.5699 3.19417 19.4975C3.20305 19.4566 3.21344 19.4162 3.22145 19.3753C3.23726 19.2956 3.24852 19.2161 3.26021 19.1371C3.26519 19.1035 3.27234 19.0697 3.27645 19.0361C3.29031 18.9241 3.29984 18.8133 3.30309 18.7056C3.30633 18.596 3.26714 18.4897 3.1946 18.4106C3.14112 18.3523 3.07291 18.3128 2.99886 18.2955C2.88972 18.2428 1.75704 17.6417 2.05538 15.9517C2.18054 15.2439 2.64026 15.0952 3.00357 15.0952C3.28442 15.0952 3.58235 15.191 3.76317 15.3393C3.85715 15.4163 3.98036 15.4413 4.09728 15.4111C4.21313 15.3809 4.31058 15.2937 4.3593 15.179C4.36211 15.1722 4.6631 14.4864 5.89973 13.6209C5.93633 13.5952 5.97292 13.5725 6.00952 13.5494L6.04005 13.5301C6.5056 13.238 6.99261 13.1022 7.57161 13.1022L7.60886 13.1024C7.68594 13.1034 7.76693 13.1054 7.84856 13.1097C7.85853 13.1102 7.86784 13.1104 7.87758 13.1111C7.9564 13.1156 8.03544 13.1229 8.11296 13.1329C8.12573 13.1345 8.13829 13.1361 8.15107 13.1379C8.22707 13.1488 8.30047 13.1635 8.36977 13.1824C8.38146 13.1856 8.3925 13.189 8.40398 13.1924C8.47262 13.213 8.53671 13.2378 8.59302 13.2689C8.59583 13.2703 8.59973 13.2712 8.60255 13.2728C8.60298 13.2737 8.60341 13.2748 8.60363 13.2757C8.8888 13.9681 9.07546 14.7336 9.25586 15.4753C9.30674 15.6833 9.35676 15.8895 9.40873 16.093C9.41501 16.1168 9.43601 16.1861 9.46589 16.2819C9.54125 16.5236 9.60079 16.722 9.64454 16.8771H9.09562C8.89663 16.8771 8.72991 17.0349 8.70956 17.2427Z" fill="#515151"/>
<path d="M7.97927 15.8598C7.97927 16.2009 7.71553 16.4773 7.39051 16.4773C7.06528 16.4773 6.80176 16.2009 6.80176 15.8598C6.80176 15.5189 7.06528 15.2426 7.39051 15.2426C7.71554 15.2426 7.97927 15.519 7.97927 15.8598Z" fill="#515151"/>
<path d="M24.6932 13.7239C24.4501 12.8885 24.0426 12.1436 23.5142 11.5702C22.6006 10.5781 21.3116 10.0092 19.9777 10.0092C18.7913 10.0092 17.6798 10.4631 16.8479 11.2874C16.3983 11.7328 16.0341 12.286 15.7347 12.979C15.3956 13.7641 15.1905 14.6059 14.9921 15.4198C14.9419 15.6258 14.8923 15.8297 14.8384 16.04C14.3767 17.8444 14.4376 17.8971 14.6392 18.0722C14.6996 18.1244 14.7734 18.1567 14.8514 18.1639C14.8696 18.1658 14.872 18.166 15.5469 18.166L15.682 19.8481C15.6848 19.8812 15.6911 19.913 15.7006 19.9432C15.7236 20.7416 16.1315 21.7324 16.7285 21.9654C16.9288 22.0436 17.5128 22.113 17.9258 22.1464C17.9243 22.3928 17.9254 22.6226 17.9267 22.8643L17.9282 23.3818C17.9282 23.6066 18.1018 23.7888 18.3162 23.7888H22.6898C22.9042 23.7888 23.0778 23.6066 23.0778 23.3818V21.3223C23.1417 21.2755 23.2264 21.2192 23.2712 21.1895C23.3587 21.1316 23.429 21.0811 23.4568 21.0562C23.748 20.7937 23.9489 20.4492 24.1228 20.1158C24.5921 19.2149 24.7794 18.2196 24.8898 17.4529C25.0851 16.0992 25.0191 14.8446 24.6932 13.7238L24.6932 13.7239ZM17.9631 20.0682C18.1612 19.9824 18.2554 19.7444 18.1736 19.5368C18.0917 19.3288 17.8643 19.2298 17.6669 19.3161C17.1799 19.5268 16.7056 19.5175 16.4318 19.4853L16.2901 17.7253C16.2732 17.5146 16.105 17.3527 15.9034 17.3527H15.3266C15.379 17.1013 15.4658 16.7287 15.5903 16.2418C15.6425 16.0383 15.6929 15.831 15.744 15.6216C15.9242 14.8815 16.1106 14.1174 16.3952 13.4261C16.3956 13.4249 16.3958 13.4238 16.3965 13.4229C16.3995 13.4211 16.4038 13.4204 16.4069 13.4188C16.4647 13.3872 16.5307 13.3623 16.6015 13.3414C16.6134 13.338 16.6247 13.3346 16.6366 13.3311C16.7078 13.3123 16.783 13.2975 16.8601 13.2869C16.8735 13.285 16.8863 13.2835 16.8997 13.2819C16.9776 13.2721 17.0562 13.2646 17.1331 13.2605C17.1439 13.2598 17.1537 13.2596 17.1645 13.2592C17.2433 13.2553 17.3206 13.253 17.391 13.2526C17.4514 13.2517 17.5058 13.2587 17.5636 13.2608C18.0876 13.2787 18.5285 13.4099 18.9795 13.6929C19.0196 13.7181 19.0601 13.7429 19.1003 13.7713C20.3368 14.6362 20.6373 15.3223 20.6382 15.3239C20.6843 15.4417 20.7804 15.5301 20.898 15.5625C21.0152 15.5955 21.1405 15.5682 21.2362 15.4896C21.2754 15.4576 21.3226 15.4283 21.3731 15.4009C21.3889 15.3924 21.4054 15.3843 21.422 15.3763C21.4599 15.3582 21.4998 15.3418 21.5418 15.327C21.5598 15.3207 21.5767 15.3136 21.5951 15.3077C21.6507 15.2905 21.7085 15.2766 21.7683 15.2662C21.7897 15.2626 21.812 15.261 21.8337 15.2585C21.8744 15.2535 21.9153 15.2498 21.9567 15.2482C21.9896 15.2473 22.0223 15.2469 22.0552 15.2485C22.068 15.2489 22.0807 15.2496 22.0933 15.2505C22.1321 15.2535 22.1706 15.2594 22.2087 15.2662C22.2217 15.2685 22.2347 15.2705 22.2477 15.2732C22.2843 15.2814 22.3196 15.293 22.3547 15.3052C22.3655 15.3091 22.3772 15.3109 22.3878 15.3152C22.3906 15.3164 22.3926 15.3184 22.3954 15.3196C22.4621 15.3468 22.5225 15.382 22.5781 15.4242C22.5905 15.4338 22.6015 15.4454 22.6134 15.4556C22.6539 15.4903 22.6907 15.5301 22.7245 15.5734C22.7388 15.5921 22.7533 15.6109 22.7663 15.6309C22.7958 15.6759 22.8211 15.726 22.8445 15.779C22.8538 15.8003 22.865 15.8198 22.8735 15.8428C22.9029 15.9218 22.9272 16.0072 22.9439 16.1017C23.2423 17.7919 22.1098 18.3928 22.0006 18.4454C21.9266 18.4625 21.8581 18.5022 21.8044 18.5606C21.7819 18.5851 21.7689 18.616 21.7531 18.645C21.7525 18.6464 21.7516 18.6475 21.7509 18.6489C21.7362 18.6768 21.7239 18.7041 21.7159 18.7347C21.6925 18.807 21.6886 18.8833 21.7046 18.958C21.7092 19.0336 21.7135 19.1088 21.723 19.1862C21.7278 19.2232 21.7354 19.2607 21.741 19.2979C21.7522 19.3733 21.7631 19.4489 21.778 19.5248C21.7873 19.5718 21.799 19.6183 21.8096 19.6654C21.8243 19.7317 21.8382 19.7982 21.8547 19.8636C21.8672 19.9131 21.8813 19.9606 21.8945 20.0092C21.9114 20.0705 21.9276 20.1325 21.9454 20.1922C21.9605 20.2431 21.9766 20.291 21.9919 20.3403C22.0093 20.3945 22.0262 20.4499 22.0433 20.502C22.0602 20.5528 22.0768 20.5996 22.0935 20.6477C22.1095 20.6936 22.1255 20.7406 22.1409 20.7838C22.1593 20.8349 22.1769 20.881 22.1942 20.9277C22.207 20.9618 22.2197 20.997 22.2317 21.0283C22.2537 21.0865 22.2743 21.1394 22.2929 21.1875C22.2957 21.1948 22.2994 21.2048 22.3022 21.2116V22.9747L18.7032 22.975L18.703 22.8603C18.7012 22.5019 18.6997 22.1695 18.7069 21.7684C18.7088 21.6574 18.6672 21.5502 18.5921 21.4719C18.517 21.3937 18.4156 21.3506 18.3084 21.354C18.1161 21.359 17.1632 21.2618 16.9997 21.203C16.8462 21.143 16.6238 20.7563 16.5255 20.3105C16.8973 20.3334 17.4202 20.3035 17.9631 20.0682Z" fill="#515151"/>
<path d="M18.1988 16.0092C18.1988 16.3501 17.9353 16.6267 17.6102 16.6267C17.285 16.6267 17.0215 16.3501 17.0215 16.0092C17.0215 15.6681 17.285 15.3918 17.6102 15.3918C17.9353 15.3918 18.1988 15.6682 18.1988 16.0092Z" fill="#515151"/>
<path d="M21.502 17.7044C21.5384 17.7153 21.575 17.7208 21.6107 17.7208C21.7787 17.7208 21.9338 17.6054 21.9832 17.4276C22.0795 17.0808 22.1592 16.5903 22.1627 16.5696C22.1984 16.348 22.0564 16.1382 21.845 16.1005C21.6341 16.0651 21.4336 16.212 21.3976 16.4336C21.397 16.4382 21.3221 16.8985 21.2383 17.1996C21.1783 17.4153 21.2963 17.6415 21.502 17.7044Z" fill="#515151"/>
<path d="M3.4193 17.5457C3.38292 17.5566 3.34633 17.5621 3.31038 17.5621C3.14236 17.5621 2.98731 17.4467 2.93794 17.2689C2.84158 16.9221 2.7619 16.4317 2.75843 16.411C2.7227 16.1893 2.86475 15.9793 3.07609 15.9418C3.287 15.9064 3.48773 16.0533 3.52345 16.2749C3.5241 16.2795 3.59903 16.7398 3.68282 17.0409C3.74302 17.2569 3.62501 17.4828 3.4193 17.5457Z" fill="#515151"/>
<path d="M13.3017 8.45981H15.5101C17.0934 8.45981 18.3816 7.10887 18.3816 5.44836V3.01145C18.3816 1.351 17.0935 0 15.5101 0H8.21623C6.63294 0 5.34473 1.35094 5.34473 3.01145V5.44836C5.34473 7.10881 6.63288 8.45981 8.21623 8.45981H9.88288C9.82139 9.06639 9.70922 10.1353 9.62694 10.6787C9.60875 10.7991 9.64274 10.9215 9.71983 11.0125C9.79367 11.0997 9.89934 11.1495 10.01 11.1495C10.015 11.1495 10.02 11.1492 10.0247 11.1492C10.0492 11.1481 12.3718 11.0255 13.3015 8.4598L13.3017 8.45981ZM10.4685 10.2477C10.5772 9.36247 10.6937 8.15663 10.6998 8.09396C10.7108 7.97928 10.6751 7.86528 10.6015 7.7799C10.5281 7.69451 10.4235 7.64592 10.3137 7.64592H8.21634C7.06089 7.64592 6.12091 6.66012 6.12091 5.44836V3.01145C6.12091 1.79969 7.06089 0.81389 8.21634 0.81389H15.5103C16.6657 0.81389 17.6057 1.79969 17.6057 3.01145V5.44836C17.6057 6.66012 16.6657 7.64592 15.5103 7.64592H13.026C12.8566 7.64592 12.707 7.76105 12.6559 7.93023C12.1737 9.53278 11.0956 10.069 10.4687 10.2477L10.4685 10.2477Z" fill="#515151"/>
<path d="M15.8707 5.49725C15.8707 5.27243 15.6971 5.0903 15.4827 5.0903H8.30795C8.09358 5.0903 7.91992 5.27243 7.91992 5.49725C7.91992 5.72207 8.09358 5.90419 8.30795 5.90419H15.4821C15.6967 5.90419 15.8704 5.72184 15.8704 5.49725H15.8707Z" fill="#515151"/>
<path d="M8.30795 3.61949H13.381C13.5954 3.61949 13.769 3.43737 13.769 3.21255C13.769 2.98773 13.5954 2.8056 13.381 2.8056H8.30795C8.09358 2.8056 7.91992 2.98773 7.91992 3.21255C7.91992 3.43714 8.09358 3.61949 8.30795 3.61949Z" fill="#515151"/>
</svg>
