<svg width="26" height="24" viewBox="0 0 26 24" fill="none" xmlns="http://www.w3.org/2000/svg">
<path d="M24.9999 15.0393L12.1787 23L1.57438 15.9789C1.57438 15.9789 1 15.323 1 13.5557C1 12.9644 1.16176 12.9784 1.35322 12.8162C1.9276 12.3292 3.08388 13.0314 3.46261 13.2855C3.96816 13.6238 12.052 18.6156 12.052 18.6156L25 11.059" stroke="#515151" stroke-miterlimit="10" stroke-linecap="round" stroke-linejoin="round"/>
<path d="M24.9999 10.855L12.1787 18.8157L1.57438 11.7941C1.57438 11.7941 1 11.1382 1 9.37143C1 8.78012 1.16176 8.79411 1.35322 8.63193M1.35322 8.63193C1.9276 8.14491 3.08388 8.84708 3.46261 9.10123C3.96816 9.43786 12.052 14.4307 12.052 14.4307L25 6.87409L15.0374 1L1.35322 8.63193Z" stroke="#515151" stroke-miterlimit="10" stroke-linecap="round" stroke-linejoin="round"/>
</svg>
