<svg width="24" height="24" viewBox="0 0 24 24" fill="none" xmlns="http://www.w3.org/2000/svg">
<path d="M24 20.3008V20.276V0.413796C24 0.304067 23.9564 0.198769 23.8788 0.121183C23.8012 0.0435975 23.6959 0 23.5862 0H7.03501C6.80651 0 6.62123 0.185286 6.62123 0.413796V11.0358C6.13321 11.781 5.87312 12.6526 5.87312 13.5433C5.87312 14.4343 6.13321 15.3057 6.62123 16.051V16.3324L6.5261 16.233C6.36521 16.0752 6.1077 16.0752 5.94681 16.233L0.414451 21.4922C0.144756 21.7717 -0.00394937 22.1463 0.000670782 22.5348C-0.0113364 22.9272 0.138292 23.3072 0.414451 23.586C0.689504 23.8575 1.06245 24.0068 1.4489 23.9998C1.83497 24.0048 2.20718 23.8559 2.48335 23.586L6.62115 19.6549V23.586C6.62115 23.6957 6.66475 23.801 6.74233 23.8786C6.81992 23.9562 6.92521 23.9998 7.03493 23.9998H20.2759C20.33 23.999 20.3834 23.9879 20.4331 23.9667C20.4765 23.9458 20.5168 23.9194 20.5532 23.888L23.8634 20.5776C23.8968 20.5412 23.9234 20.4993 23.9419 20.4535C23.9434 20.4426 23.9434 20.4313 23.9419 20.4204C23.9663 20.3831 23.9857 20.3427 23.9999 20.3004L24 20.3008ZM20.6898 22.585V20.6898H22.5891L20.6898 22.585ZM7.86257 10.8497C7.98209 10.732 8.11084 10.6241 8.24735 10.527L8.34248 10.4566C8.47567 10.3648 8.61384 10.2805 8.75626 10.2041L8.79764 10.1834C8.93193 10.1184 9.07011 10.0616 9.21142 10.0138L9.32318 9.97242C9.47336 9.9231 9.62687 9.88449 9.78259 9.8566C9.80586 9.85419 9.8295 9.85419 9.85278 9.8566C9.98966 9.83313 10.1278 9.81799 10.2666 9.81097H10.3826C10.5436 9.79859 10.7055 9.79859 10.8665 9.81097H10.9452C11.0845 9.82778 11.2227 9.85272 11.359 9.8856L11.4872 9.92291V9.92273C11.6498 9.96614 11.8088 10.0214 11.963 10.0882C12.3757 10.2678 12.7527 10.5201 13.0762 10.8331L13.1175 10.8745C13.6432 11.3952 14.002 12.0608 14.1479 12.7862C14.1479 12.9063 14.1893 13.0221 14.1976 13.138H14.1974C14.2872 13.9666 14.0964 14.8017 13.6554 15.509C13.5053 15.7604 13.3229 15.9913 13.1135 16.196C12.4108 16.9009 11.4563 17.2972 10.461 17.2972C9.46572 17.2972 8.51128 16.9009 7.80875 16.196C7.65506 16.0427 7.51652 15.8749 7.39497 15.6952C6.95478 15.0639 6.71869 14.313 6.71869 13.5434C6.71869 12.7739 6.95477 12.0229 7.39497 11.3917C7.51726 11.2101 7.6558 11.0396 7.80875 10.8828L7.86257 10.8497ZM1.92069 22.9822C1.80265 23.1047 1.63973 23.1736 1.46959 23.1725C1.21283 23.1704 0.981949 23.0156 0.882737 22.7786C0.783723 22.5416 0.835447 22.2684 1.01445 22.0842L6.23659 17.1187L7.1469 18.0207L6.76213 18.389L1.92069 22.9822ZM7.44879 18.8524L8.01144 18.3144C8.09198 18.2378 8.13816 18.1319 8.13982 18.0207C8.14148 17.9093 8.09826 17.8018 8.01975 17.7227L7.44878 17.1558V17.0027L7.50253 17.0481L7.64736 17.1599C7.71349 17.2151 7.7798 17.2646 7.84593 17.3088L7.99907 17.4122L8.21002 17.5364L8.37147 17.6232L8.59499 17.7307L8.76456 17.8011L9.00045 17.8838L9.16597 17.9418L9.42255 18.0039L9.584 18.0412L9.87364 18.0826H10.0144H10.4489L10.4487 18.0828C11.6644 18.0865 12.8311 17.6038 13.6886 16.742C13.8833 16.5562 14.0617 16.3541 14.2224 16.138H20.7516C20.9801 16.138 21.1654 15.9527 21.1654 15.7242C21.1654 15.4957 20.9801 15.3104 20.7516 15.3104H14.6773C14.7525 15.1321 14.8175 14.9498 14.8718 14.7641C14.8966 14.6647 14.9173 14.5655 14.938 14.4661C14.9587 14.3667 14.938 14.3874 14.967 14.3503C15.0375 13.9502 15.0542 13.5425 15.0167 13.1379H20.7514C20.9799 13.1379 21.1652 12.9526 21.1652 12.7241C21.1652 12.4956 20.9799 12.3103 20.7514 12.3103H14.8715C14.658 11.5518 14.2534 10.8608 13.6963 10.3034L13.6259 10.2413L13.5101 10.1379H20.751C20.9795 10.1379 21.1648 9.95258 21.1648 9.72407C21.1648 9.49556 20.9795 9.31028 20.751 9.31028H12.1983L11.9707 9.22346C11.921 9.20277 11.8672 9.19039 11.8175 9.17376L11.652 9.12407L11.4699 9.07862L11.3334 9.04962L11.1389 9.01656L11.0064 8.99587H10.0178L9.82328 9.01656H9.69915L9.50888 9.04962L9.38069 9.07862L9.19449 9.12832L9.06629 9.16563L8.8884 9.2277L8.88803 9.22752C8.84407 9.24045 8.80103 9.25708 8.75984 9.27721L8.59026 9.34759L8.45781 9.4056L8.30062 9.48836L8.16817 9.56281L8.01503 9.64963L7.88258 9.73645L7.74608 9.83584L7.60957 9.93929L7.48543 10.0427L7.43999 10.0758L7.43981 0.827581H23.172V19.8622H20.2755C20.047 19.8622 19.8617 20.0475 19.8617 20.276V23.1726H7.44832L7.44879 18.8524Z" fill="#515151"/>
<path d="M9.89034 4.13811H17.5247C17.7532 4.13811 17.9385 3.95282 17.9385 3.72431C17.9385 3.4958 17.7532 3.31052 17.5247 3.31052H9.89034C9.66184 3.31052 9.47656 3.4958 9.47656 3.72431C9.47656 3.95282 9.66184 4.13811 9.89034 4.13811Z" fill="#515151"/>
<path d="M20.7512 6.31067H9.88937C9.66086 6.31067 9.47559 6.49595 9.47559 6.72446C9.47559 6.95297 9.66086 7.13826 9.88937 7.13826H20.7512C20.9797 7.13826 21.165 6.95297 21.165 6.72446C21.165 6.49595 20.9797 6.31067 20.7512 6.31067Z" fill="#515151"/>
</svg>
